<svg xmlns="http://www.w3.org/2000/svg" height="63.75pt" version="1.1" viewBox="0 0 63.75 63.75" width="63.75pt">
<g id="surface1">
<path d="M 35.339844 25.882812 C 37.363281 26.796875 38.660156 28.804688 38.671875 31.019531 C 38.671875 31.019531 38.671875 31.109375 38.671875 31.148438 C 38.671875 31.179688 38.671875 31.324219 38.671875 31.421875 C 38.621094 32.113281 39.140625 32.714844 39.832031 32.769531 C 39.839844 32.769531 39.839844 32.769531 39.839844 32.769531 L 55.746094 33.910156 L 55.835938 33.910156 C 56.492188 33.910156 57.046875 33.402344 57.089844 32.742188 L 57.089844 32.539062 C 57.089844 32.035156 57.167969 31.539062 57.167969 31.019531 C 57.15625 21.53125 51.617188 12.917969 42.984375 8.984375 C 42.347656 8.699219 41.605469 8.980469 41.324219 9.609375 L 34.714844 24.207031 C 34.421875 24.84375 34.703125 25.585938 35.332031 25.878906 C 35.335938 25.878906 35.335938 25.878906 35.339844 25.882812 Z M 43.070312 11.820312 C 50.203125 15.570312 54.6875 22.957031 54.703125 31.019531 C 54.703125 31.121094 54.703125 31.214844 54.703125 31.308594 L 41.160156 30.339844 C 40.941406 27.835938 39.585938 25.570312 37.480469 24.199219 Z M 43.070312 11.820312 " style=" stroke:none;fill-rule:nonzero;fill:rgb(0%,0%,0%);fill-opacity:1;" />
<path d="M 37.050781 38.03125 C 36.628906 37.480469 35.84375 37.371094 35.292969 37.792969 C 33.277344 39.332031 30.484375 39.332031 28.472656 37.792969 C 27.917969 37.371094 27.128906 37.480469 26.707031 38.03125 L 16.988281 50.785156 C 16.566406 51.335938 16.675781 52.125 17.226562 52.542969 C 25.867188 59.160156 37.871094 59.160156 46.511719 52.542969 C 47.066406 52.125 47.171875 51.335938 46.753906 50.785156 Z M 31.875 54.996094 C 27.554688 54.984375 23.335938 53.671875 19.773438 51.226562 L 28.003906 40.417969 C 30.417969 41.734375 33.339844 41.734375 35.757812 40.417969 L 43.984375 51.226562 C 40.417969 53.671875 36.199219 54.984375 31.875 54.996094 Z M 31.875 54.996094 " style=" stroke:none;fill-rule:nonzero;fill:rgb(0%,0%,0%);fill-opacity:1;" />
<path d="M 24.8125 32.328125 C 25.035156 32.074219 25.140625 31.742188 25.117188 31.410156 C 25.117188 31.324219 25.117188 31.234375 25.117188 31.132812 C 25.117188 31.035156 25.117188 31.042969 25.117188 31.003906 C 25.121094 28.792969 26.425781 26.78125 28.445312 25.867188 C 29.078125 25.585938 29.355469 24.84375 29.070312 24.207031 L 22.441406 9.609375 C 22.152344 8.980469 21.410156 8.699219 20.78125 8.984375 C 12.125 12.898438 6.550781 21.519531 6.53125 31.019531 C 6.53125 31.539062 6.53125 32.035156 6.605469 32.539062 L 6.605469 32.742188 C 6.65625 33.402344 7.203125 33.910156 7.867188 33.910156 L 8.003906 33.910156 L 24 32.769531 C 24.316406 32.730469 24.609375 32.574219 24.8125 32.328125 Z M 9.046875 31.308594 C 9.046875 31.210938 9.046875 31.113281 9.046875 31.019531 C 9.0625 22.957031 13.542969 15.570312 20.679688 11.820312 L 26.269531 24.199219 C 24.164062 25.570312 22.808594 27.835938 22.585938 30.339844 Z M 9.046875 31.308594 " style=" stroke:none;fill-rule:nonzero;fill:rgb(0%,0%,0%);fill-opacity:1;" />
<path d="M 26.636719 31.859375 C 26.636719 34.753906 28.980469 37.097656 31.875 37.097656 C 34.769531 37.097656 37.113281 34.753906 37.113281 31.859375 C 37.113281 28.96875 34.769531 26.621094 31.875 26.621094 C 28.984375 26.628906 26.640625 28.96875 26.636719 31.859375 Z M 31.875 29.136719 C 33.378906 29.136719 34.597656 30.355469 34.597656 31.859375 C 34.597656 33.367188 33.378906 34.589844 31.875 34.589844 C 30.371094 34.589844 29.148438 33.367188 29.148438 31.859375 C 29.148438 30.355469 30.371094 29.136719 31.875 29.136719 Z M 31.875 29.136719 " style=" stroke:none;fill-rule:nonzero;fill:rgb(0%,0%,0%);fill-opacity:1;" />
<path d="M 31.875 63.75 C 49.476562 63.75 63.75 49.476562 63.75 31.875 C 63.75 14.273438 49.476562 0 31.875 0 C 14.277344 0 0.0078125 14.261719 0 31.859375 C 0.015625 49.460938 14.273438 63.730469 31.875 63.75 Z M 31.875 2.5 C 48.089844 2.5 61.234375 15.644531 61.234375 31.859375 C 61.234375 48.082031 48.089844 61.226562 31.875 61.226562 C 15.660156 61.226562 2.515625 48.082031 2.515625 31.859375 C 2.535156 15.652344 15.667969 2.519531 31.875 2.5 Z M 31.875 2.5 " style=" stroke:none;fill-rule:nonzero;fill:rgb(0%,0%,0%);fill-opacity:1;" />
</g>
</svg>